# xmcd
#
# Track frame offsets:
#	150
#	38994
#	67300
#	88521
#	122572
#	178195
#
# Disc length: 3643 seconds
#
# Revision: 1
# Processed by: cddbd v1.5.2PL0 Copyright (c) Steve Scherf et al.
# Submitted via: EZCDAudioConverter 2.1.7.1
#
DISCID=520e3906
DTITLE=Weather Report - Legendary Live Tapes 2/4
DYEAR=2015
DGENRE=Jazz
TTITLE0=Joe And Wayne Duet
TTITLE1=Birdland
TTITLE2=Peter's Solo [''Drum Solo'']
TTITLE3=A Remark You Made
TTITLE4=Continuum/River People
TTITLE5=Gibraltar
EXTD=
EXTT0=
EXTT1=
EXTT2=
EXTT3=
EXTT4=
EXTT5=
PLAYORDER=
